<svg width="32" height="32" viewBox="0 0 32 32" fill="none" xmlns="http://www.w3.org/2000/svg">
<style>
  .icon { fill: #0079FF; }
  @media (prefers-color-scheme: dark) {
    .icon { fill: #66AFFF; }
  }
</style>
<g clip-path="url(#clip0_13_3183)">
<path class="icon" d="M16 0.394717C24.84 0.394717 32 7.55472 32 16.3947C31.9991 19.7471 30.947 23.0149 28.9917 25.738C27.0364 28.4611 24.2763 30.5024 21.1 31.5747C20.3 31.7347 20 31.2347 20 30.8147C20 30.2747 20.02 28.5547 20.02 26.4147C20.02 24.9147 19.52 23.9547 18.94 23.4547C22.5 23.0547 26.24 21.6947 26.24 15.5547C26.24 13.7947 25.62 12.3747 24.6 11.2547C24.76 10.8547 25.32 9.21472 24.44 7.01472C24.44 7.01472 23.1 6.57472 20.04 8.65472C18.76 8.29472 17.4 8.11472 16.04 8.11472C14.68 8.11472 13.32 8.29472 12.04 8.65472C8.98 6.59472 7.64 7.01472 7.64 7.01472C6.76 9.21472 7.32 10.8547 7.48 11.2547C6.46 12.3747 5.84 13.8147 5.84 15.5547C5.84 21.6747 9.56 23.0547 13.12 23.4547C12.66 23.8547 12.24 24.5547 12.1 25.5947C11.18 26.0147 8.88 26.6947 7.44 24.2747C7.14 23.7947 6.24 22.6147 4.98 22.6347C3.64 22.6547 4.44 23.3947 5 23.6947C5.68 24.0747 6.46 25.4947 6.64 25.9547C6.96 26.8547 8 28.5747 12.02 27.8347C12.02 29.1747 12.04 30.4347 12.04 30.8147C12.04 31.2347 11.74 31.7147 10.94 31.5747C7.75328 30.514 4.98147 28.4767 3.01778 25.752C1.05409 23.0272 -0.00176096 19.7533 2.20462e-06 16.3947C2.20462e-06 7.55472 7.16 0.394717 16 0.394717Z"/>
</g>
<defs>
<clipPath id="clip0_13_3183">
<rect width="32" height="32"/>
</clipPath>
</defs>
</svg>
